<svg class="svg-icon" style="width: 1em; height: 1em;vertical-align: middle;fill: currentColor;overflow: hidden;" viewBox="0 0 1024 1024" version="1.1" xmlns="http://www.w3.org/2000/svg"><path d="M512 1024h-3.413333c-160.426667-47.786667-457.386667-215.04-457.386667-402.773333V146.773333c0-6.826667 3.413333-13.653333 13.653333-17.066666l443.733334-129.706667h6.826666l443.733334 129.706667c6.826667 3.413333 13.653333 10.24 13.653333 17.066666v474.453334c0 187.733333-296.96 354.986667-457.386667 402.773333H512zM85.333333 160.426667v460.8c0 153.6 249.173333 314.026667 426.666667 368.64 177.493333-54.613333 426.666667-215.04 426.666667-368.64V160.426667L512 34.133333 85.333333 160.426667z" fill="" /><path d="M512 512H170.666667c-10.24 0-17.066667-6.826667-17.066667-17.066667v-273.066666c0-6.826667 3.413333-13.653333 13.653333-17.066667l341.333334-102.4c3.413333 0 10.24 0 13.653333 3.413333s6.826667 6.826667 6.826667 13.653334v375.466666c0 10.24-6.826667 17.066667-17.066667 17.066667z m-324.266667-34.133333h307.2V143.36l-307.2 92.16V477.866667z" fill="" /><path d="M512 921.6c-3.413333 0-6.826667 0-10.24-3.413333-3.413333-3.413333-6.826667-6.826667-6.826667-13.653334v-409.6c0-10.24 6.826667-17.066667 17.066667-17.066666h341.333333c10.24 0 17.066667 6.826667 17.066667 17.066666v136.533334c0 109.226667-177.493333 228.693333-351.573333 290.133333H512z m17.066667-409.6v368.64c153.6-58.026667 307.2-163.84 307.2-249.173333V512h-307.2z" fill="" /></svg>