<svg class="svg-icon" style="width: 1em;height: 1em;vertical-align: middle;fill: currentColor;overflow: hidden;" viewBox="0 0 1024 1024" version="1.1" xmlns="http://www.w3.org/2000/svg"><path d="M505.73312 358.4c-14.10048-39.68-51.59936-68.27008-96.13312-68.27008S327.56736 318.72 313.46688 358.4H204.8v68.27008h108.66688c14.10048 39.68 51.59936 68.27008 96.13312 68.27008s82.03264-28.59008 96.13312-68.27008H819.2V358.4H505.73312zM409.6 426.67008a34.14016 34.14016 0 1 1 0.02048-68.28032A34.14016 34.14016 0 0 1 409.6 426.67008zM744.67328 597.34016c-14.10048-39.70048-51.59936-68.28032-96.14336-68.28032-44.53376 0-82.03264 28.57984-96.13312 68.28032H204.8V665.6h347.5968c14.10048 39.70048 51.59936 68.25984 96.13312 68.25984 44.544 0 82.04288-28.55936 96.14336-68.25984H819.2v-68.25984h-74.52672zM648.52992 665.6A34.10944 34.10944 0 0 1 614.4 631.45984a34.0992 34.0992 0 0 1 34.12992-34.11968 34.0992 34.0992 0 0 1 34.14016 34.11968A34.10944 34.10944 0 0 1 648.52992 665.6z"  /></svg>